<svg width="1158" height="254" viewBox="0 0 1158 254" fill="none" xmlns="http://www.w3.org/2000/svg">
<g clip-path="url(#clip0_63_63)">
<path d="M237.46 101.756C235.683 96.4656 231.103 92.6087 225.59 91.7655L161.426 81.9607L132.606 20.5645C130.148 15.3313 124.896 12 119.125 12C113.352 12 108.103 15.3313 105.645 20.5645L76.8208 81.9645L12.6568 91.7693C7.14375 92.6125 2.56466 96.4656 0.791254 101.759C-0.982152 107.053 0.35641 112.884 4.25488 116.884L51.1121 164.933L40.0142 232.908C39.0991 238.535 41.4851 244.191 46.1398 247.481C50.7907 250.771 56.9315 251.104 61.9341 248.343L119.129 216.713L176.324 248.343C178.582 249.591 181.066 250.204 183.539 250.204C186.549 250.204 189.559 249.289 192.119 247.481C196.773 244.195 199.156 238.538 198.241 232.908L187.143 164.933L234.004 116.884C237.895 112.884 239.233 107.053 237.46 101.756Z" fill="#614D70"/>
</g>
<g clip-path="url(#clip1_63_63)">
<path d="M497.441 101.756C495.656 96.4656 491.058 92.6087 485.522 91.7655L421.093 81.9607L392.154 20.5645C389.686 15.3313 384.412 12 378.618 12C372.82 12 367.55 15.3313 365.082 20.5645L336.138 81.9645L271.709 91.7693C266.173 92.6125 261.575 96.4656 259.794 101.759C258.014 107.053 259.358 112.884 263.272 116.884L310.323 164.933L299.179 232.908C298.261 238.535 300.656 244.191 305.33 247.481C310.001 250.771 316.167 251.104 321.19 248.343L378.621 216.713L436.053 248.343C438.32 249.591 440.814 250.204 443.297 250.204C446.32 250.204 449.342 249.289 451.913 247.481C456.586 244.195 458.979 238.538 458.06 232.908L446.916 164.933L493.971 116.884C497.877 112.884 499.222 107.053 497.441 101.756Z" fill="#614D70"/>
</g>
<g clip-path="url(#clip2_63_63)">
<path d="M756.46 101.756C754.683 96.4656 750.103 92.6087 744.59 91.7655L680.426 81.9607L651.606 20.5645C649.148 15.3313 643.896 12 638.125 12C632.352 12 627.103 15.3313 624.645 20.5645L595.821 81.9645L531.657 91.7693C526.144 92.6125 521.565 96.4656 519.791 101.759C518.018 107.053 519.356 112.884 523.255 116.884L570.112 164.933L559.014 232.908C558.099 238.535 560.485 244.191 565.14 247.481C569.791 250.771 575.931 251.104 580.934 248.343L638.129 216.713L695.324 248.343C697.582 249.591 700.066 250.204 702.539 250.204C705.549 250.204 708.559 249.289 711.119 247.481C715.773 244.195 718.156 238.538 717.241 232.908L706.143 164.933L753.004 116.884C756.895 112.884 758.233 107.053 756.46 101.756Z" fill="#614D70"/>
</g>
<g clip-path="url(#clip3_63_63)">
<path d="M1015.46 93.7555C1013.68 88.4656 1009.1 84.6087 1003.59 83.7655L939.426 73.9607L910.606 12.5645C908.148 7.33128 902.896 4 897.125 4C891.352 4 886.103 7.33128 883.645 12.5645L854.821 73.9645L790.657 83.7693C785.144 84.6125 780.565 88.4656 778.791 93.7593C777.018 99.0531 778.356 104.884 782.255 108.884L829.112 156.933L818.014 224.908C817.099 230.535 819.485 236.191 824.14 239.481C828.791 242.771 834.931 243.104 839.934 240.343L897.129 208.713L954.324 240.343C956.582 241.591 959.066 242.204 961.539 242.204C964.549 242.204 967.559 241.289 970.119 239.481C974.773 236.195 977.156 230.538 976.241 224.908L965.143 156.933L1012 108.884C1015.89 104.884 1017.23 99.0531 1015.46 93.7555Z" fill="#614D70"/>
</g>
<g clip-path="url(#clip4_63_63)">
<path d="M1274.44 90.7555C1272.66 85.4656 1268.08 81.6087 1262.57 80.7655L1198.41 70.9607L1169.59 9.56453C1167.13 4.33128 1161.88 1 1156.11 1C1150.33 1 1145.08 4.33128 1142.63 9.56453L1113.8 70.9645L1049.64 80.7693C1044.12 81.6125 1039.54 85.4656 1037.77 90.7593C1036 96.0531 1037.34 101.884 1041.23 105.884L1088.09 153.933L1076.99 221.908C1076.08 227.535 1078.47 233.191 1083.12 236.481C1087.77 239.771 1093.91 240.104 1098.91 237.343L1156.11 205.713L1213.3 237.343C1215.56 238.591 1218.05 239.204 1220.52 239.204C1223.53 239.204 1226.54 238.289 1229.1 236.481C1233.75 233.195 1236.14 227.538 1235.22 221.908L1224.12 153.933L1270.98 105.884C1274.87 101.884 1276.21 96.0531 1274.44 90.7555Z" fill="#614D70"/>
</g>
<defs>
<clipPath id="clip0_63_63">
<rect width="242" height="242" fill="white" transform="translate(0 12)"/>
</clipPath>
<clipPath id="clip1_63_63">
<rect width="243" height="242" fill="white" transform="translate(259 12)"/>
</clipPath>
<clipPath id="clip2_63_63">
<rect width="242" height="242" fill="white" transform="translate(519 12)"/>
</clipPath>
<clipPath id="clip3_63_63">
<rect width="242" height="242" fill="white" transform="translate(778 4)"/>
</clipPath>
<clipPath id="clip4_63_63">
<rect width="242" height="242" fill="white" transform="translate(916)"/>
</clipPath>
</defs>
</svg>
