<svg width="1020" height="250" viewBox="0 0 1020 250" fill="none" xmlns="http://www.w3.org/2000/svg">
<g clip-path="url(#clip0_63_63)">
<path d="M237.46 97.7555C235.683 92.4656 231.103 88.6087 225.59 87.7655L161.426 77.9607L132.606 16.5645C130.148 11.3313 124.896 8 119.125 8C113.352 8 108.103 11.3313 105.645 16.5645L76.8208 77.9645L12.6568 87.7693C7.14375 88.6125 2.56466 92.4656 0.791254 97.7593C-0.982152 103.053 0.35641 108.884 4.25488 112.884L51.1121 160.933L40.0142 228.908C39.0991 234.535 41.4851 240.191 46.1398 243.481C50.7907 246.771 56.9315 247.104 61.9341 244.343L119.129 212.713L176.324 244.343C178.582 245.591 181.066 246.204 183.539 246.204C186.549 246.204 189.559 245.289 192.119 243.481C196.773 240.195 199.156 234.538 198.241 228.908L187.143 160.933L234.004 112.884C237.895 108.884 239.233 103.053 237.46 97.7555Z" fill="#614D70"/>
</g>
<g clip-path="url(#clip1_63_63)">
<path d="M497.441 97.7555C495.656 92.4656 491.058 88.6087 485.522 87.7655L421.093 77.9607L392.154 16.5645C389.686 11.3313 384.412 8 378.618 8C372.82 8 367.55 11.3313 365.082 16.5645L336.138 77.9645L271.709 87.7693C266.173 88.6125 261.575 92.4656 259.794 97.7593C258.014 103.053 259.358 108.884 263.272 112.884L310.323 160.933L299.179 228.908C298.261 234.535 300.656 240.191 305.33 243.481C310.001 246.771 316.167 247.104 321.19 244.343L378.621 212.713L436.053 244.343C438.32 245.591 440.814 246.204 443.297 246.204C446.32 246.204 449.342 245.289 451.913 243.481C456.586 240.195 458.979 234.538 458.06 228.908L446.916 160.933L493.971 112.884C497.877 108.884 499.222 103.053 497.441 97.7555Z" fill="#614D70"/>
</g>
<g clip-path="url(#clip2_63_63)">
<path d="M756.46 97.7555C754.683 92.4656 750.103 88.6087 744.59 87.7655L680.426 77.9607L651.606 16.5645C649.148 11.3313 643.896 8 638.125 8C632.352 8 627.103 11.3313 624.645 16.5645L595.821 77.9645L531.657 87.7693C526.144 88.6125 521.565 92.4656 519.791 97.7593C518.018 103.053 519.356 108.884 523.255 112.884L570.112 160.933L559.014 228.908C558.099 234.535 560.485 240.191 565.14 243.481C569.791 246.771 575.931 247.104 580.934 244.343L638.129 212.713L695.324 244.343C697.582 245.591 700.066 246.204 702.539 246.204C705.549 246.204 708.559 245.289 711.119 243.481C715.773 240.195 718.156 234.538 717.241 228.908L706.143 160.933L753.004 112.884C756.895 108.884 758.233 103.053 756.46 97.7555Z" fill="#614D70"/>
</g>
<g clip-path="url(#clip3_63_63)">
<path d="M1015.46 89.7555C1013.68 84.4656 1009.1 80.6087 1003.59 79.7655L939.426 69.9607L910.606 8.56453C908.148 3.33128 902.896 0 897.125 0C891.352 0 886.103 3.33128 883.645 8.56453L854.821 69.9645L790.657 79.7693C785.144 80.6125 780.565 84.4656 778.791 89.7593C777.018 95.0531 778.356 100.884 782.255 104.884L829.112 152.933L818.014 220.908C817.099 226.535 819.485 232.191 824.14 235.481C828.791 238.771 834.931 239.104 839.934 236.343L897.129 204.713L954.324 236.343C956.582 237.591 959.066 238.204 961.539 238.204C964.549 238.204 967.559 237.289 970.119 235.481C974.773 232.195 977.156 226.538 976.241 220.908L965.143 152.933L1012 104.884C1015.89 100.884 1017.23 95.0531 1015.46 89.7555Z" fill="#614D70"/>
</g>
<defs>
<clipPath id="clip0_63_63">
<rect width="242" height="242" fill="white" transform="translate(0 8)"/>
</clipPath>
<clipPath id="clip1_63_63">
<rect width="243" height="242" fill="white" transform="translate(259 8)"/>
</clipPath>
<clipPath id="clip2_63_63">
<rect width="242" height="242" fill="white" transform="translate(519 8)"/>
</clipPath>
<clipPath id="clip3_63_63">
<rect width="242" height="242" fill="white" transform="translate(778)"/>
</clipPath>
</defs>
</svg>
