<svg width="32" height="32" viewBox="0 0 32 32" fill="none" xmlns="http://www.w3.org/2000/svg">
<path d="M27.661 4.43789C27.1404 3.91719 26.2961 3.91719 25.7754 4.43789L16.0496 14.1637L6.32375 4.43789C5.80306 3.91719 4.95883 3.91719 4.43814 4.43789C3.91743 4.95859 3.91743 5.80281 4.43814 6.32351L14.164 16.0493L4.43816 25.7751C3.91746 26.2959 3.91746 27.14 4.43816 27.6608C4.95886 28.1815 5.80308 28.1815 6.32378 27.6608L16.0496 17.9349L25.7754 27.6608C26.2961 28.1815 27.1404 28.1815 27.661 27.6608C28.1817 27.14 28.1817 26.2959 27.661 25.7752L17.9352 16.0493L27.661 6.32351C28.1817 5.80281 28.1817 4.95859 27.661 4.43789Z" fill="#E3651D"/>
</svg>
