<svg width="742" height="800" viewBox="0 0 742 800" fill="none" xmlns="http://www.w3.org/2000/svg">
<path d="M100 266.667C100 235.604 100 220.073 105.075 207.821C111.841 191.486 124.819 178.508 141.154 171.741C153.406 166.667 168.937 166.667 200 166.667H600C631.063 166.667 646.593 166.667 658.847 171.741C675.18 178.508 688.16 191.486 694.927 207.821C700 220.073 700 235.604 700 266.667V533.333C700 564.397 700 579.927 694.927 592.18C688.16 608.513 675.18 621.493 658.847 628.26C646.593 633.333 631.063 633.333 600 633.333H200C168.937 633.333 153.406 633.333 141.154 628.26C124.819 621.493 111.841 608.513 105.075 592.18C100 579.927 100 564.397 100 533.333V266.667Z" stroke="#341A47" stroke-width="66.6667" stroke-linejoin="round"/>
<path d="M133.333 200L356.1 394.92C381.233 416.913 418.767 416.913 443.9 394.92L666.667 200" stroke="#341A47" stroke-width="66.6667" stroke-linecap="round" stroke-linejoin="round"/>
</svg>
