<svg width="287" height="287" viewBox="0 0 287 287" fill="none" xmlns="http://www.w3.org/2000/svg">
<g clip-path="url(#clip0_73_7)">
<path d="M228.027 3.93152H58.9726C28.5743 3.93152 3.93152 28.5743 3.93152 58.9726V228.027C3.93152 258.426 28.5743 283.069 58.9726 283.069H228.027C258.426 283.069 283.069 258.426 283.069 228.027V58.9726C283.069 28.5743 258.426 3.93152 228.027 3.93152Z" fill="#1D0133" stroke="#614D70" stroke-width="21"/>
<path d="M62.9041 7.86304H114.539L167.454 279.137H62.9041C32.5058 279.137 7.86304 254.494 7.86304 224.096V62.9041C7.86304 32.5058 32.5058 7.86304 62.9041 7.86304Z" fill="#341A47"/>
<path fill-rule="evenodd" clip-rule="evenodd" d="M58.9727 149.593V139.077L109.694 112.597V124.127L68.9058 144.398L109.694 164.48V176.073L58.9727 149.593ZM156.576 90.4247H165.694L127.977 197.042H118.811L156.576 90.4247ZM177.306 164.48L218.094 144.398L177.306 124.127V112.597L228.027 139.077V149.593L177.306 176.073V164.48Z" fill="#E3651D"/>
</g>
<defs>
<clipPath id="clip0_73_7">
<rect width="287" height="287" fill="white"/>
</clipPath>
</defs>
</svg>
