<svg width="54" height="83" viewBox="0 0 54 83" fill="none" xmlns="http://www.w3.org/2000/svg">
<path d="M25.2 0V25.2609H12.6C5.661 25.2609 0 19.5862 0 12.6304C0 5.67467 5.661 0 12.6 0H25.2ZM25.2 28.8696V54.1304H12.6C5.661 54.1304 0 48.4558 0 41.5C0 34.5442 5.661 28.8696 12.6 28.8696H25.2ZM25.2 57.7391V70.3696C25.2 77.3253 19.539 83 12.6 83C5.661 83 0 77.3253 0 70.3696C0 63.4138 5.661 57.7391 12.6 57.7391H25.2ZM54 12.6304C54 19.5862 48.339 25.2609 41.4 25.2609H28.8V0H41.4C48.339 0 54 5.67467 54 12.6304ZM41.4 28.8696C38.0583 28.8696 34.8534 30.2003 32.4905 32.5689C30.1275 34.9376 28.8 38.1502 28.8 41.5C28.8 44.8498 30.1275 48.0624 32.4905 50.4311C34.8534 52.7997 38.0583 54.1304 41.4 54.1304C44.7417 54.1304 47.9466 52.7997 50.3095 50.4311C52.6725 48.0624 54 44.8498 54 41.5C54 38.1502 52.6725 34.9376 50.3095 32.5689C47.9466 30.2003 44.7417 28.8696 41.4 28.8696Z" fill="#614D70"/>
</svg>
