<svg width="70" height="78" viewBox="0 0 70 78" fill="none" xmlns="http://www.w3.org/2000/svg">
<path d="M69.5527 0.549763C69.2331 0.19871 68.7737 0 68.2944 0H1.70563C1.22628 0 0.766912 0.19871 0.44735 0.549763C0.121129 0.900815 -0.0386522 1.37109 0.00795099 1.848L6.0064 68.7004C6.06632 69.4025 6.55898 69.9854 7.23805 70.1841L34.5273 77.9338C34.6738 77.9801 34.8336 78 34.9933 78C35.1531 78 35.3062 77.9801 35.4594 77.9338L62.7686 70.1841C63.4477 69.9854 63.9337 69.4025 64.0003 68.7004L69.9921 1.848C70.0387 1.37109 69.8789 0.900815 69.5527 0.549763ZM55.1923 23.6H23.1296L23.8952 32.2306H54.4201L52.1299 57.7383L34.9867 62.8915L34.8202 62.8385L17.8768 57.7317L16.9514 47.3392H25.2534L25.6129 51.373L35.0865 53.3468L44.3871 51.373L45.3791 40.4572H16.3322L14.0753 15.3536H55.9313L55.1923 23.6Z" fill="#614D70"/>
</svg>
