<svg width="185" height="185" viewBox="0 0 185 185" fill="none" xmlns="http://www.w3.org/2000/svg">
<g clip-path="url(#clip0_45_4)">
<path fill-rule="evenodd" clip-rule="evenodd" d="M173.438 2.04073e-06H11.5625C10.0438 -0.000900469 8.53989 0.297556 7.13666 0.878307C5.73342 1.45906 4.45842 2.31071 3.38457 3.38457C2.31071 4.45842 1.45906 5.73342 0.878307 7.13666C0.297556 8.53989 -0.000900469 10.0438 2.04073e-06 11.5625V173.438C-0.000900469 174.956 0.297556 176.46 0.878307 177.863C1.45906 179.267 2.31071 180.542 3.38457 181.615C4.45842 182.689 5.73342 183.541 7.13666 184.122C8.53989 184.702 10.0438 185.001 11.5625 185H173.438C174.956 185.001 176.46 184.702 177.863 184.122C179.267 183.541 180.542 182.689 181.615 181.615C182.689 180.542 183.541 179.267 184.122 177.863C184.702 176.46 185.001 174.956 185 173.438V11.5625C185.001 10.0438 184.702 8.53989 184.122 7.13666C183.541 5.73342 182.689 4.45842 181.615 3.38457C180.542 2.31071 179.267 1.45906 177.863 0.878307C176.46 0.297556 174.956 -0.000900469 173.438 2.04073e-06ZM69.375 92.5C69.375 92.5 71.204 69.375 92.5 69.375C113.796 69.375 115.625 92.5 115.625 92.5C115.625 92.5 116.291 115.625 92.5 115.625C68.7087 115.625 69.375 92.5 69.375 92.5ZM161.875 161.875H23.125V80.9375H47.8872C46.008 87.801 45.7378 95.0056 47.0976 101.991C48.4574 108.976 51.4106 115.553 55.7272 121.21C60.0439 126.868 65.6077 131.453 71.9857 134.609C78.3637 137.765 85.3839 139.407 92.5 139.407C99.6161 139.407 106.636 137.765 113.014 134.609C119.392 131.453 124.956 126.868 129.273 121.21C133.589 115.553 136.543 108.976 137.902 101.991C139.262 95.0056 138.992 87.801 137.113 80.9375H161.875V161.875ZM161.875 57.8125H127.188V23.125H161.875V57.8125Z" fill="#341A47"/>
</g>
<defs>
<clipPath id="clip0_45_4">
<rect width="185" height="185" fill="white"/>
</clipPath>
</defs>
</svg>
