<svg width="800" height="800" viewBox="0 0 800 800" fill="none" xmlns="http://www.w3.org/2000/svg">
<path fill-rule="evenodd" clip-rule="evenodd" d="M66.6666 200C66.6666 126.362 126.362 66.6667 200 66.6667H600C673.637 66.6667 733.333 126.362 733.333 200V600C733.333 673.637 673.637 733.333 600 733.333H200C126.362 733.333 66.6666 673.637 66.6666 600V200ZM200 133.333C163.181 133.333 133.333 163.181 133.333 200V600C133.333 636.82 163.181 666.667 200 666.667H600C636.82 666.667 666.667 636.82 666.667 600V200C666.667 163.181 636.82 133.333 600 133.333H200ZM400 300C344.77 300 300 344.77 300 400C300 455.23 344.77 500 400 500C455.23 500 500 455.23 500 400C500 344.77 455.23 300 400 300ZM233.333 400C233.333 307.953 307.953 233.333 400 233.333C492.047 233.333 566.667 307.953 566.667 400C566.667 492.047 492.047 566.667 400 566.667C307.953 566.667 233.333 492.047 233.333 400ZM583.333 266.667C610.947 266.667 633.333 244.281 633.333 216.667C633.333 189.052 610.947 166.667 583.333 166.667C555.72 166.667 533.333 189.052 533.333 216.667C533.333 244.281 555.72 266.667 583.333 266.667Z" fill="#341A47"/>
</svg>
