<svg width="800" height="800" viewBox="0 0 800 800" fill="none" xmlns="http://www.w3.org/2000/svg">
<g clip-path="url(#clip0_61_14)">
<path d="M452.195 153.602H50.046C22.4367 153.602 0 176.04 0 203.648V476.576C0 504.185 22.4367 526.625 50.046 526.625H184.83V592.652H163.573C148.719 592.652 136.702 604.67 136.702 619.524C136.702 634.376 148.719 646.397 163.573 646.397H338.669C353.521 646.397 365.543 634.376 365.543 619.524C365.543 604.668 353.522 592.652 338.669 592.652H317.386V526.625H452.197C479.806 526.625 502.243 504.185 502.243 476.576V203.648C502.241 176.04 479.805 153.602 452.195 153.602ZM448.495 472.879H53.746V207.348H448.495V472.879Z" fill="#E3651D"/>
<path d="M772.075 224.877H597.245C581.814 224.877 569.322 237.369 569.322 252.8V618.474C569.322 633.905 581.814 646.397 597.245 646.397H772.075C787.508 646.397 799.998 633.905 799.998 618.474V252.801C800 237.369 787.51 224.877 772.075 224.877ZM684.633 533.761C672.929 533.761 663.431 524.262 663.431 512.555C663.431 500.851 672.929 491.351 684.633 491.351C696.339 491.351 705.839 500.851 705.839 512.555C705.839 524.262 696.339 533.761 684.633 533.761ZM760.792 421.386C760.792 429.734 754.023 436.503 745.675 436.503H623.645C615.299 436.503 608.528 429.734 608.528 421.386V385.488C608.528 377.142 615.299 370.37 623.645 370.37H745.675C754.023 370.37 760.792 377.142 760.792 385.488V421.386ZM760.792 320.507C760.792 328.855 754.023 335.624 745.675 335.624H623.645C615.299 335.624 608.528 328.855 608.528 320.507V284.609C608.528 276.261 615.299 269.492 623.645 269.492H745.675C754.023 269.492 760.792 276.261 760.792 284.609V320.507Z" fill="#E3651D"/>
</g>
<defs>
<clipPath id="clip0_61_14">
<rect width="800" height="800" fill="white"/>
</clipPath>
</defs>
</svg>
