<svg width="70" height="78" viewBox="0 0 70 78" fill="none" xmlns="http://www.w3.org/2000/svg">
<path d="M65.5599 0H4.44662C1.99219 0 0 2.21987 0 4.9548V73.0452C0 75.7801 1.99219 78 4.44662 78H65.5534C68.0078 78 70 75.7801 70 73.0525V4.9548C70 2.21987 68.0078 0 65.5599 0ZM38.3333 59.7695C38.3333 67.1908 34.4271 70.5714 28.724 70.5714C23.5677 70.5714 19.8503 66.7193 18.3333 63.1429L23.5742 59.6099C24.5833 61.6049 26.1198 63.1429 28.3333 63.1429C30.4492 63.1429 31.6667 62.2215 31.6667 58.6378V35.2857H38.3333V59.7695ZM52.793 70.5714C46.888 70.5714 43.5352 67.2561 41.6667 63.1429L46.6667 59.4286C48.0273 61.9096 49.5117 64.2818 52.6497 64.2818C55.2865 64.2818 56.6667 62.8164 56.6667 60.7852C56.6667 58.3622 55.2344 57.4989 52.3372 56.0843L50.7487 55.3225C46.1589 53.1462 43.1055 50.4185 43.1055 44.644C43.1055 39.3337 46.7448 35.2857 52.4219 35.2857C56.4648 35.2857 59.3685 36.8527 61.4648 40.9587L56.5169 44.5061C55.4232 42.3225 54.2513 41.4665 52.4219 41.4665C50.5599 41.4665 49.3815 42.7868 49.3815 44.5061C49.3815 46.6317 50.5599 47.4877 53.2878 48.808L54.8763 49.5698C60.2865 52.1451 63.3333 54.7785 63.3333 60.6981C63.3333 67.0748 58.8346 70.5714 52.793 70.5714Z" fill="#614D70"/>
</svg>
