<svg width="240" height="240" viewBox="0 0 240 240" fill="none" xmlns="http://www.w3.org/2000/svg">
<path d="M75.7237 153.056C71.6068 153.056 68.1083 154.496 65.2269 157.377C62.3465 160.261 60.9053 163.759 60.9053 167.876C60.9053 171.993 62.3455 175.491 65.2269 178.374C68.1094 181.255 71.6079 182.696 75.7237 182.696C79.7715 182.696 83.2523 181.255 86.1683 178.374C89.0833 175.494 90.5407 171.993 90.5407 167.876C90.5407 163.759 89.0836 160.263 86.1683 157.377C83.2519 154.499 79.7715 153.056 75.7237 153.056Z" fill="#614D70"/>
<path d="M72.4312 121.776C72.4312 117.249 70.8198 113.374 67.5953 110.147C64.3711 106.923 60.4946 105.311 55.9671 105.311C51.4393 105.311 47.5635 106.923 44.339 110.147C41.1152 113.371 39.5034 117.247 39.5034 121.776C39.5034 126.303 41.1148 130.177 44.339 133.402C47.5635 136.627 51.4393 138.239 55.9671 138.239C60.4946 138.239 64.3711 136.627 67.5953 133.402C70.8198 130.179 72.4312 126.303 72.4312 121.776Z" fill="#614D70"/>
<path d="M167.92 83.9108C170.182 83.9108 172.123 83.1035 173.733 81.4921C175.345 79.8793 176.153 77.9407 176.153 75.6773C176.153 73.4129 175.345 71.4757 173.733 69.864C172.122 68.2512 170.182 67.4453 167.92 67.4453C165.656 67.4453 163.717 68.2526 162.105 69.864C160.494 71.4761 159.688 73.4129 159.688 75.6773C159.688 77.9418 160.494 79.8793 162.105 81.4921C163.717 83.105 165.656 83.9108 167.92 83.9108Z" fill="#614D70"/>
<path d="M75.725 57.5681C70.7165 57.5681 66.4464 59.3348 62.9133 62.8672C59.3799 66.3995 57.6143 70.67 57.6143 75.6774C57.6143 80.6867 59.3799 84.9554 62.9133 88.4892C66.4475 92.0226 70.7175 93.7889 75.725 93.7889C80.7325 93.7889 85.003 92.0215 88.5353 88.4892C92.0676 84.9554 93.8344 80.6856 93.8344 75.6774C93.8344 70.67 92.0676 66.3995 88.5353 62.8672C85.003 59.3348 80.7325 57.5681 75.725 57.5681Z" fill="#614D70"/>
<path d="M194.673 114.778C192.753 112.857 190.421 111.897 187.678 111.897C184.932 111.897 182.6 112.857 180.68 114.778C178.761 116.699 177.801 119.032 177.801 121.777C177.801 124.52 178.761 126.856 180.68 128.773C182.601 130.694 184.932 131.654 187.678 131.654C190.421 131.654 192.755 130.694 194.673 128.773C196.595 126.854 197.553 124.52 197.553 121.777C197.553 119.033 196.596 116.7 194.673 114.778Z" fill="#614D70"/>
<path d="M167.92 156.35C164.763 156.35 162.053 157.481 159.789 159.745C157.527 162.007 156.395 164.718 156.395 167.876C156.395 171.031 157.527 173.742 159.789 176.007C162.053 178.271 164.763 179.401 167.92 179.401C171.075 179.401 173.785 178.269 176.049 176.007C178.314 173.742 179.445 171.032 179.445 167.876C179.445 164.718 178.314 162.01 176.049 159.745C173.785 157.481 171.075 156.35 167.92 156.35Z" fill="#614D70"/>
<path d="M121.822 174.458C118.186 174.458 115.082 175.747 112.508 178.32C109.936 180.893 108.649 183.996 108.649 187.632C108.649 191.268 109.935 194.371 112.508 196.944C115.082 199.517 118.185 200.804 121.822 200.804C125.458 200.804 128.561 199.517 131.134 196.944C133.707 194.371 134.993 191.268 134.993 187.632C134.993 183.996 133.707 180.893 131.134 178.32C128.561 175.747 125.458 174.458 121.822 174.458Z" fill="#614D70"/>
<path d="M121.822 36.1643C116.335 36.1643 111.668 38.0842 107.826 41.9258C103.985 45.7677 102.064 50.4335 102.064 55.921C102.064 61.409 103.984 66.0726 107.826 69.9149C111.668 73.7557 116.334 75.6767 121.822 75.6767C127.312 75.6767 131.975 73.7568 135.816 69.9149C139.656 66.0744 141.577 61.409 141.577 55.921C141.577 50.4339 139.656 45.7691 135.816 41.9258C131.975 38.0853 127.312 36.1643 121.822 36.1643Z" fill="#614D70"/>
</svg>
