<svg width="714" height="800" viewBox="0 0 714 800" fill="none" xmlns="http://www.w3.org/2000/svg">
<path d="M400 600H400.333M306.667 700H493.333C530.67 700 549.34 700 563.6 692.733C576.143 686.343 586.343 676.143 592.733 663.6C600 649.34 600 630.67 600 593.333V206.667C600 169.33 600 150.661 592.733 136.401C586.343 123.856 576.143 113.658 563.6 107.266C549.34 100 530.67 100 493.333 100H306.667C269.33 100 250.661 100 236.401 107.266C223.856 113.658 213.658 123.856 207.266 136.401C200 150.661 200 169.33 200 206.667V593.333C200 630.67 200 649.34 207.266 663.6C213.658 676.143 223.856 686.343 236.401 692.733C250.661 700 269.33 700 306.667 700Z" stroke="#E3651D" stroke-width="66.6667" stroke-linecap="round" stroke-linejoin="round"/>
</svg>
