<svg width="115" height="115" viewBox="0 0 115 115" fill="none" xmlns="http://www.w3.org/2000/svg">
<g clip-path="url(#clip0_63_24)">
<path d="M85.354 107.822C84.9276 108.047 84.9516 108.138 85.378 107.923C85.5028 107.869 85.6166 107.793 85.7134 107.698C85.7134 107.621 85.7038 107.63 85.354 107.822ZM86.207 107.372C86.0057 107.53 86.0057 107.539 86.2501 107.415C86.3843 107.348 86.4993 107.271 86.4993 107.247C86.4993 107.156 86.4418 107.18 86.207 107.372ZM86.7676 107.032C86.5663 107.19 86.5663 107.199 86.8107 107.075C86.9449 107.008 87.0599 106.931 87.0599 106.907C87.0599 106.816 87.0024 106.84 86.7676 107.032ZM87.3282 106.696C87.127 106.854 87.127 106.864 87.3713 106.739C87.5055 106.672 87.6205 106.595 87.6205 106.572C87.6205 106.48 87.563 106.504 87.3282 106.696ZM88.1045 106.193C87.7115 106.442 87.587 106.61 87.9368 106.418C88.1859 106.274 88.5884 105.968 88.5213 105.958C88.3744 106.021 88.2346 106.1 88.1045 106.193ZM53.7338 0.0288162C53.4847 0.0527745 52.6988 0.129441 51.9897 0.186941C35.6597 1.65798 20.3599 10.4699 10.6711 24.0159C5.31482 31.4509 1.83322 40.0694 0.522383 49.1386C0.0623828 52.2963 0.00488281 53.2307 0.00488281 57.5144C0.00488281 61.7982 0.0623828 62.7278 0.522383 65.8903C3.64655 87.4815 19.0134 105.623 39.8524 112.345C43.5851 113.548 47.519 114.368 51.9897 114.861C53.7338 115.053 61.2615 115.053 63.0057 114.861C70.7251 114.008 77.2705 112.096 83.7201 108.804C84.7072 108.297 84.8988 108.162 84.7647 108.052C81.6142 103.889 78.4932 99.7047 75.4018 95.498L66.2065 83.078L54.6874 66.0292C50.8573 60.3245 46.9904 54.6447 43.0868 48.9901C43.0436 48.9805 42.9957 56.5561 42.9765 65.804C42.943 81.9999 42.9334 82.6515 42.7274 83.0349C42.5318 83.4827 42.1814 83.8451 41.7403 84.0555C41.3809 84.2376 41.0647 84.2711 39.3684 84.2711H37.423L36.9055 83.9453C36.5862 83.744 36.3265 83.4612 36.1532 83.1259L35.9184 82.618L35.9424 60.0828L35.9759 37.538L36.3257 37.1019C36.5607 36.8258 36.8431 36.5938 37.1595 36.4167C37.6195 36.1915 37.8015 36.1676 39.747 36.1676C42.0422 36.1676 42.4207 36.2586 43.0197 36.9103C47.6826 43.8498 52.3067 50.8154 56.8915 57.8067C64.357 69.1246 74.5584 84.5778 79.5753 92.1678L88.6795 105.958L89.1395 105.656C93.5202 102.742 97.4924 99.2568 100.951 95.2919C108.196 87.0008 112.894 76.7952 114.483 65.8999C114.943 62.7421 115 61.8078 115 57.524C115 53.2403 114.943 52.3107 114.483 49.1482C111.358 27.5569 95.9915 9.41569 75.1526 2.69298C71.2582 1.45313 67.2476 0.613442 63.183 0.186941C62.1049 0.0767329 54.673 -0.0478505 53.7434 0.0431912L53.7338 0.0288162ZM77.2705 34.8067C77.5385 34.9414 77.777 35.1282 77.9719 35.3561C78.1669 35.5839 78.3145 35.8484 78.4061 36.134C78.4972 36.4263 78.5163 42.6746 78.4972 56.7574L78.4636 76.9686L74.8986 71.5061L71.324 66.0436V51.3524C71.324 41.8553 71.3672 36.5174 71.4343 36.2586C71.5155 35.96 71.6558 35.6806 71.8467 35.437C72.0376 35.1935 72.2754 34.9905 72.5459 34.8403C73.0059 34.6055 73.1736 34.5815 74.9418 34.5815C76.6045 34.5815 76.8968 34.6055 77.2705 34.8067Z" fill="#614D70"/>
</g>
<defs>
<clipPath id="clip0_63_24">
<rect width="115" height="115" fill="white"/>
</clipPath>
</defs>
</svg>
