<svg width="87" height="87" viewBox="0 0 87 87" fill="none" xmlns="http://www.w3.org/2000/svg">
<path d="M30.971 12.1267C29.1991 12.1267 27.5558 12.5234 26.1 13.3615C21.5502 15.9883 19.8184 22.3895 20.7361 30.3593C13.3768 33.5496 8.69995 38.2471 8.69995 43.4999C8.69995 48.7528 13.3768 53.4503 20.7361 56.6406C19.8189 64.6101 21.5502 71.0116 26.1 73.6384C27.5529 74.4765 29.1962 74.8732 30.971 74.8732C34.7487 74.8732 39.1147 72.9773 43.4999 69.7246C47.8856 72.9773 52.2569 74.8732 56.0345 74.8732C57.8064 74.8732 59.4498 74.4765 60.9056 73.6384C65.4553 71.0116 67.1871 64.6103 66.2695 56.6406C73.626 53.4504 78.2999 48.7517 78.2999 43.4999C78.2999 38.2471 73.6231 33.5496 66.2638 30.3593C67.181 22.3898 65.4497 15.9883 60.8999 13.3615C59.447 12.5205 57.8037 12.1267 56.0289 12.1267C52.2512 12.1267 47.8852 14.0226 43.4999 17.2753C39.1145 14.0226 34.7474 12.1267 30.971 12.1267ZM30.971 17.2017C33.2378 17.2017 36.2353 18.407 39.4898 20.6398C37.5763 22.4456 35.7023 24.499 33.8994 26.7853C30.9751 27.2046 28.218 27.8159 25.6638 28.5808C25.6501 28.4037 25.6176 28.2178 25.6072 28.0427C25.2969 22.8807 26.4306 19.0328 28.6375 17.7568C29.29 17.3798 30.0517 17.2017 30.971 17.2017ZM56.0289 17.2017C56.9453 17.2017 57.7099 17.3798 58.3624 17.7568C60.5693 19.0299 61.703 22.8807 61.3927 28.0427C61.3822 28.2178 61.3499 28.4037 61.3361 28.5808C58.7803 27.8154 56.0212 27.2046 53.0949 26.7853C51.292 24.4993 49.4235 22.4454 47.5101 20.6398C50.7643 18.4073 53.7633 17.2017 56.0289 17.2017ZM43.4999 23.8626C44.2861 24.5782 45.0667 25.3345 45.8562 26.1623C45.0738 26.136 44.2956 26.1 43.4999 26.1C42.7062 26.1 41.9299 26.1361 41.1494 26.1623C41.9381 25.3353 42.7146 24.5775 43.4999 23.8626ZM43.4999 31.175C45.9031 31.175 48.1809 31.3093 50.3421 31.5431C51.6601 33.3346 52.9591 35.2286 54.1767 37.3374C55.3438 39.3588 56.3758 41.4279 57.2863 43.4999C56.3756 45.5733 55.3445 47.6455 54.1767 49.6681C52.9629 51.7709 51.6672 53.6527 50.3535 55.4398C48.1159 55.6846 45.8206 55.8249 43.4999 55.8249C41.0968 55.8249 38.819 55.6906 36.6578 55.4568C35.3398 53.6653 34.0408 51.777 32.8232 49.6681C31.6554 47.6455 30.6245 45.5733 29.7136 43.4999C30.6239 41.4279 31.6561 39.3588 32.8232 37.3374C34.0375 35.2347 35.3324 33.3472 36.6464 31.5601C38.884 31.3153 41.1793 31.175 43.4999 31.175ZM57.2636 32.7439C58.4142 33.0217 59.5203 33.3216 60.5601 33.6558C60.3245 34.7203 60.0364 35.8051 59.7105 36.9013C59.3373 36.2011 58.9754 35.4986 58.572 34.8C58.157 34.0813 57.6962 33.4357 57.2636 32.7439ZM29.7306 32.7496C29.2995 33.4392 28.8416 34.0836 28.4279 34.8C28.0246 35.4987 27.6625 36.201 27.2894 36.9013C26.9627 35.8029 26.6699 34.7167 26.4341 33.6501C27.493 33.3156 28.5964 33.0193 29.7306 32.7496ZM21.6593 35.5136C22.2703 38.0935 23.118 40.7679 24.2082 43.4943C23.1203 46.2142 22.2762 48.8837 21.665 51.458C16.6147 49.0192 13.775 45.9834 13.775 43.4999C13.775 40.9508 16.5354 38.0458 21.1609 35.7345C21.3188 35.6555 21.498 35.5908 21.6593 35.5136ZM65.3349 35.5419C70.3852 37.9807 73.2249 41.0165 73.2249 43.4999C73.2249 46.049 70.4645 48.9541 65.839 51.2654C65.6811 51.3444 65.5019 51.4091 65.3406 51.4863C64.7292 48.9049 63.8885 46.228 62.7974 43.4999C63.884 40.7824 64.7242 38.1141 65.3349 35.5419ZM43.4999 37.6999C40.2954 37.6999 37.6999 40.2954 37.6999 43.4999C37.6999 46.7044 40.2954 49.2999 43.4999 49.2999C46.7044 49.2999 49.2999 46.7044 49.2999 43.4999C49.2999 40.2954 46.7044 37.6999 43.4999 37.6999ZM27.2894 50.0986C27.6627 50.7991 28.03 51.5011 28.4335 52.1999C28.8482 52.9181 29.3042 53.5647 29.7363 54.256C28.5857 53.9782 27.4796 53.6783 26.4398 53.3441C26.6755 52.279 26.9632 51.1955 27.2894 50.0986ZM59.7105 50.1042C60.0368 51.2016 60.3301 52.2842 60.5658 53.3498C59.5069 53.6843 58.4035 53.9806 57.2693 54.2503C57.7004 53.5607 58.1583 52.9163 58.572 52.1999C58.9745 51.5027 59.3382 50.8031 59.7105 50.1042ZM25.6638 58.4191C28.2196 59.1845 30.9787 59.7953 33.905 60.2146C35.7085 62.5017 37.5755 64.5596 39.4898 66.3658C36.2356 68.5979 33.2376 69.8039 30.971 69.8039C30.0546 69.8039 29.29 69.6201 28.6375 69.2431C26.4306 67.97 25.2969 64.1248 25.6072 58.9628C25.6178 58.7859 25.6499 58.5981 25.6638 58.4191ZM61.3361 58.4191C61.35 58.5981 61.3822 58.7859 61.3927 58.9628C61.703 64.1248 60.5693 67.9671 58.3624 69.2431C57.7099 69.6201 56.9482 69.8039 56.0289 69.8039C53.7623 69.8039 50.7643 68.5983 47.5101 66.3658C49.4245 64.5594 51.2967 62.5021 53.1005 60.2146C56.0248 59.7953 58.7819 59.184 61.3361 58.4191ZM41.1437 60.8376C41.9261 60.8639 42.7043 60.8999 43.4999 60.8999C44.2956 60.8999 45.0738 60.8639 45.8562 60.8376C45.0667 61.6654 44.2861 62.4218 43.4999 63.1373C42.7138 62.4217 41.9332 61.6654 41.1437 60.8376Z" fill="#614D70"/>
</svg>
