<svg width="196" height="44" viewBox="0 0 196 44" fill="none" xmlns="http://www.w3.org/2000/svg">
<path d="M15.312 33L8.592 21.324H4.938V33H0.15V3.81H10.23C12.47 3.81 14.36 4.202 15.9 4.986C17.468 5.77 18.63 6.82 19.386 8.136C20.17 9.452 20.562 10.922 20.562 12.546C20.562 14.45 20.002 16.186 18.882 17.754C17.79 19.294 16.096 20.344 13.8 20.904L21.024 33H15.312ZM4.938 17.502H10.23C12.022 17.502 13.366 17.054 14.262 16.158C15.186 15.262 15.648 14.058 15.648 12.546C15.648 11.034 15.2 9.858 14.304 9.018C13.408 8.15 12.05 7.716 10.23 7.716H4.938V17.502ZM29.1231 6.792C28.2551 6.792 27.5271 6.498 26.9391 5.91C26.3511 5.322 26.0571 4.594 26.0571 3.726C26.0571 2.858 26.3511 2.13 26.9391 1.542C27.5271 0.953999 28.2551 0.659998 29.1231 0.659998C29.9631 0.659998 30.6771 0.953999 31.2651 1.542C31.8531 2.13 32.1471 2.858 32.1471 3.726C32.1471 4.594 31.8531 5.322 31.2651 5.91C30.6771 6.498 29.9631 6.792 29.1231 6.792ZM31.4751 9.858V33H26.6871V9.858H31.4751ZM36.1653 21.324C36.1653 19 36.6413 16.942 37.5933 15.15C38.5733 13.358 39.8893 11.972 41.5413 10.992C43.2213 9.984 45.0833 9.48 47.1273 9.48C48.9193 9.48 50.5013 9.844 51.8733 10.572C53.2733 11.3 54.3513 12.182 55.1073 13.218V9.858H59.9373V44.004H55.1073V29.64C54.3513 30.676 53.2593 31.558 51.8313 32.286C50.4033 33.014 48.7793 33.378 46.9593 33.378C44.9713 33.378 43.1513 32.874 41.4993 31.866C39.8753 30.83 38.5733 29.402 37.5933 27.582C36.6413 25.734 36.1653 23.648 36.1653 21.324ZM55.1073 21.408C55.1073 19.812 54.7713 18.426 54.0993 17.25C53.4553 16.074 52.6013 15.178 51.5373 14.562C50.4733 13.946 49.3253 13.638 48.0933 13.638C46.8613 13.638 45.7133 13.946 44.6493 14.562C43.5853 15.15 42.7173 16.032 42.0453 17.208C41.4013 18.356 41.0793 19.728 41.0793 21.324C41.0793 22.92 41.4013 24.32 42.0453 25.524C42.7173 26.728 43.5853 27.652 44.6493 28.296C45.7413 28.912 46.8893 29.22 48.0933 29.22C49.3253 29.22 50.4733 28.912 51.5373 28.296C52.6013 27.68 53.4553 26.784 54.0993 25.608C54.7713 24.404 55.1073 23.004 55.1073 21.408ZM87.1842 9.858V33H82.3962V30.27C81.6402 31.222 80.6462 31.978 79.4142 32.538C78.2102 33.07 76.9222 33.336 75.5502 33.336C73.7302 33.336 72.0922 32.958 70.6362 32.202C69.2082 31.446 68.0742 30.326 67.2342 28.842C66.4222 27.358 66.0162 25.566 66.0162 23.466V9.858H70.7622V22.752C70.7622 24.824 71.2802 26.42 72.3162 27.54C73.3522 28.632 74.7662 29.178 76.5582 29.178C78.3502 29.178 79.7642 28.632 80.8002 27.54C81.8642 26.42 82.3962 24.824 82.3962 22.752V9.858H87.1842ZM114.712 20.862C114.712 21.73 114.656 22.514 114.544 23.214H96.8616C97.0016 25.062 97.6876 26.546 98.9196 27.666C100.152 28.786 101.664 29.346 103.456 29.346C106.032 29.346 107.852 28.268 108.916 26.112H114.082C113.382 28.24 112.108 29.99 110.26 31.362C108.44 32.706 106.172 33.378 103.456 33.378C101.244 33.378 99.2556 32.888 97.4916 31.908C95.7556 30.9 94.3836 29.5 93.3756 27.708C92.3956 25.888 91.9056 23.788 91.9056 21.408C91.9056 19.028 92.3816 16.942 93.3336 15.15C94.3136 13.33 95.6716 11.93 97.4076 10.95C99.1716 9.97 101.188 9.48 103.456 9.48C105.64 9.48 107.586 9.956 109.294 10.908C111.002 11.86 112.332 13.204 113.284 14.94C114.236 16.648 114.712 18.622 114.712 20.862ZM109.714 19.35C109.686 17.586 109.056 16.172 107.824 15.108C106.592 14.044 105.066 13.512 103.246 13.512C101.594 13.512 100.18 14.044 99.0036 15.108C97.8276 16.144 97.1276 17.558 96.9036 19.35H109.714ZM124.211 1.92V33H119.423V1.92H124.211ZM158.512 9.48C160.332 9.48 161.956 9.858 163.384 10.614C164.84 11.37 165.974 12.49 166.786 13.974C167.626 15.458 168.046 17.25 168.046 19.35V33H163.3V20.064C163.3 17.992 162.782 16.41 161.746 15.318C160.71 14.198 159.296 13.638 157.504 13.638C155.712 13.638 154.284 14.198 153.22 15.318C152.184 16.41 151.666 17.992 151.666 20.064V33H146.92V20.064C146.92 17.992 146.402 16.41 145.366 15.318C144.33 14.198 142.916 13.638 141.124 13.638C139.332 13.638 137.904 14.198 136.84 15.318C135.804 16.41 135.286 17.992 135.286 20.064V33H130.498V9.858H135.286V12.504C136.07 11.552 137.064 10.81 138.268 10.278C139.472 9.746 140.76 9.48 142.132 9.48C143.98 9.48 145.632 9.872 147.088 10.656C148.544 11.44 149.664 12.574 150.448 14.058C151.148 12.658 152.24 11.552 153.724 10.74C155.208 9.9 156.804 9.48 158.512 9.48ZM195.348 20.862C195.348 21.73 195.292 22.514 195.18 23.214H177.498C177.638 25.062 178.324 26.546 179.556 27.666C180.788 28.786 182.3 29.346 184.092 29.346C186.668 29.346 188.488 28.268 189.552 26.112H194.718C194.018 28.24 192.744 29.99 190.896 31.362C189.076 32.706 186.808 33.378 184.092 33.378C181.88 33.378 179.892 32.888 178.128 31.908C176.392 30.9 175.02 29.5 174.012 27.708C173.032 25.888 172.542 23.788 172.542 21.408C172.542 19.028 173.018 16.942 173.97 15.15C174.95 13.33 176.308 11.93 178.044 10.95C179.808 9.97 181.824 9.48 184.092 9.48C186.276 9.48 188.222 9.956 189.93 10.908C191.638 11.86 192.968 13.204 193.92 14.94C194.872 16.648 195.348 18.622 195.348 20.862ZM190.35 19.35C190.322 17.586 189.692 16.172 188.46 15.108C187.228 14.044 185.702 13.512 183.882 13.512C182.23 13.512 180.816 14.044 179.64 15.108C178.464 16.144 177.764 17.558 177.54 19.35H190.35Z" fill="#E3651D"/>
</svg>
