<svg width="76" height="76" viewBox="0 0 76 76" fill="none" xmlns="http://www.w3.org/2000/svg">
<path d="M7.26109 59.2388C6.66743 58.6449 6.33393 57.8396 6.33393 56.9999C6.33393 56.1602 6.66743 55.3549 7.26109 54.7611L16.7611 45.2611C17.2787 44.7433 17.9598 44.4208 18.6885 44.3487C19.4171 44.2765 20.1482 44.459 20.7574 44.8653L28.0978 49.7578L35.7611 42.0944C36.3583 41.5176 37.1582 41.1984 37.9885 41.2056C38.8188 41.2128 39.613 41.5459 40.2002 42.133C40.7873 42.7201 41.1203 43.5144 41.1276 44.3446C41.1348 45.1749 40.8156 45.9748 40.2387 46.5721L30.7388 56.0721C30.2211 56.5899 29.54 56.9123 28.8114 56.9845C28.0827 57.0567 27.3516 56.8741 26.7424 56.4679L19.4021 51.5754L11.7388 59.2388C11.1449 59.8324 10.3396 60.1659 9.49992 60.1659C8.66023 60.1659 7.85492 59.8324 7.26109 59.2388ZM69.6666 9.49992V66.4999C69.6666 67.3398 69.333 68.1452 68.7391 68.7391C68.1452 69.333 67.3398 69.6666 66.4999 69.6666H9.49992C8.66007 69.6666 7.85461 69.333 7.26075 68.7391C6.66688 68.1452 6.33325 67.3398 6.33325 66.4999C6.33325 65.6601 6.66688 64.8546 7.26075 64.2607C7.85461 63.6669 8.66007 63.3332 9.49992 63.3332H63.3332V25.3333H12.6666V37.9999C12.6666 38.8398 12.333 39.6452 11.7391 40.2391C11.1452 40.833 10.3398 41.1666 9.49992 41.1666C8.66007 41.1666 7.85461 40.833 7.26075 40.2391C6.66688 39.6452 6.33325 38.8398 6.33325 37.9999V9.49992C6.33325 8.66007 6.66688 7.85461 7.26075 7.26075C7.85461 6.66688 8.66007 6.33325 9.49992 6.33325H66.4999C67.3398 6.33325 68.1452 6.66688 68.7391 7.26075C69.333 7.85461 69.6666 8.66007 69.6666 9.49992ZM12.6666 18.9999H63.3332V12.6666H12.6666V18.9999ZM46.5721 40.2387L49.7387 37.0721C50.3156 36.4748 50.6348 35.6749 50.6275 34.8446C50.6203 34.0144 50.2873 33.2201 49.7002 32.633C49.113 32.0459 48.3188 31.7128 47.4885 31.7056C46.6582 31.6984 45.8583 32.0176 45.2611 32.5944L42.0944 35.7611C41.792 36.0532 41.5507 36.4026 41.3848 36.789C41.2188 37.1753 41.1314 37.5908 41.1278 38.0113C41.1241 38.4318 41.2043 38.8488 41.3635 39.2379C41.5227 39.6271 41.7578 39.9807 42.0552 40.278C42.3525 40.5753 42.7061 40.8105 43.0952 40.9697C43.4844 41.1289 43.9014 41.209 44.3219 41.2054C44.7423 41.2017 45.1579 41.1144 45.5442 40.9484C45.9305 40.7824 46.28 40.5412 46.5721 40.2387Z" fill="#E3651D"/>
</svg>
