<svg width="284" height="284" viewBox="0 0 284 284" fill="none" xmlns="http://www.w3.org/2000/svg">
<path d="M278.671 105.333C276.585 99.1249 271.211 94.5986 264.741 93.6091L189.441 82.1026L155.619 10.0509C152.734 3.90944 146.571 0 139.799 0C133.023 0 126.864 3.90944 123.979 10.0509L90.1524 82.1071L14.8524 93.6135C8.38255 94.6031 3.00873 99.1249 0.927546 105.337C-1.15364 111.55 0.417233 118.393 4.9923 123.087L59.9818 179.475L46.9577 259.248C45.8839 265.851 48.6839 272.489 54.1465 276.35C59.6046 280.21 66.8111 280.601 72.6819 277.362L139.804 240.242L206.925 277.362C209.574 278.826 212.49 279.545 215.392 279.545C218.924 279.545 222.456 278.471 225.461 276.35C230.923 272.494 233.719 265.855 232.645 259.248L219.621 179.475L274.615 123.087C279.181 118.393 280.752 111.55 278.671 105.333Z" fill="#614D70"/>
</svg>
