<svg width="800" height="800" viewBox="0 0 800 800" fill="none" xmlns="http://www.w3.org/2000/svg">
<path d="M66.6666 733.333L113.717 562.303C84.8073 512.13 69.6253 455.227 69.6996 397.32C69.365 214.85 217.548 66.6667 399.667 66.6667C488.057 66.6667 571.05 100.935 633.54 163.447C664.343 194.089 688.757 230.539 705.37 270.685C721.983 310.831 730.463 353.873 730.32 397.32C730.32 579.44 582.137 727.623 400 727.623C344.56 727.623 290.458 713.837 242.068 687.307L66.6666 733.333ZM249.808 627.83L259.892 633.873C302.216 658.92 350.487 672.147 399.667 672.18C550.88 672.18 674.21 548.873 674.21 397.637C674.21 324.392 645.653 255.185 593.893 203.447C568.443 177.851 538.177 157.545 504.843 143.7C471.507 129.855 435.76 122.744 399.667 122.777C248.114 122.797 124.825 246.105 124.825 397.34C124.825 449.08 139.281 499.833 166.834 543.517L173.215 553.933L145.327 655.4L249.808 627.83Z" fill="#341A47"/>
<path fill-rule="evenodd" clip-rule="evenodd" d="M317.341 258.887C311.295 245.101 304.579 244.766 298.868 244.766C293.826 244.431 288.429 244.431 282.718 244.431C277.361 244.431 268.282 246.44 260.561 254.85C252.821 263.24 231.669 283.072 231.669 323.722C231.669 364.393 261.231 403.703 265.268 409.08C269.286 414.457 322.383 500.463 406.4 533.747C476.277 561.3 490.4 555.923 505.523 554.23C520.63 552.557 554.25 534.417 561.3 514.92C568.017 495.777 568.017 478.977 566.007 475.607C563.997 472.26 558.267 470.23 550.213 465.86C541.803 461.84 501.487 441.673 493.767 438.977C486.027 436.297 480.65 434.957 475.273 443.013C469.897 451.423 454.1 469.897 449.08 475.273C444.353 480.65 439.33 481.32 431.257 477.283C422.867 473.263 396.317 464.52 364.727 436.297C340.187 414.437 323.722 387.237 318.68 379.183C313.993 370.773 318.011 366.4 322.383 362.363C326.086 358.68 330.793 352.633 334.83 347.927C338.847 343.2 340.187 339.517 343.22 334.14C345.9 328.764 344.56 323.722 342.55 319.705C340.523 316.002 324.746 275.352 317.341 258.887Z" fill="#341A47"/>
</svg>
